<svg xmlns="http://www.w3.org/2000/svg" viewBox="0 -117.5 592 592">
  <rect x="0" y="-117.5" width="592" height="592" rx="96" fill="#15151a"/>
  <g transform="translate(40.0,0)">
    <path fill="#4F39F6" fill-rule="evenodd" clip-rule="evenodd" d="M 52.0,14.0 L 45.0,32.0 L 45.0,64.0 L 50.0,91.0 L 57.0,110.0 L 19.0,134.0 L 51.0,139.0 L 35.0,154.0 L 15.0,180.0 L 5.0,201.0 L 0.0,223.0 L 18.0,206.0 L 29.0,201.0 L 13.0,260.0 L 11.0,292.0 L 17.0,313.0 L 26.0,326.0 L 43.0,339.0 L 30.0,314.0 L 28.0,287.0 L 38.0,255.0 L 39.0,261.0 L 41.0,261.0 L 40.0,264.0 L 56.0,290.0 L 71.0,306.0 L 90.0,320.0 L 128.0,338.0 L 188.0,353.0 L 229.0,357.0 L 301.0,356.0 L 343.0,350.0 L 384.0,339.0 L 420.0,322.0 L 446.0,302.0 L 465.0,278.0 L 475.0,256.0 L 484.0,279.0 L 485.0,303.0 L 481.0,319.0 L 468.0,338.0 L 478.0,333.0 L 492.0,318.0 L 501.0,297.0 L 502.0,274.0 L 498.0,250.0 L 484.0,201.0 L 486.0,200.0 L 512.0,220.0 L 507.0,199.0 L 495.0,175.0 L 482.0,158.0 L 462.0,139.0 L 465.0,137.0 L 486.0,136.0 L 493.0,133.0 L 486.0,131.0 L 457.0,111.0 L 466.0,78.0 L 468.0,36.0 L 465.0,23.0 L 454.0,8.0 L 431.0,0.0 L 403.0,1.0 L 372.0,9.0 L 345.0,22.0 L 292.0,10.0 L 233.0,9.0 L 198.0,14.0 L 168.0,23.0 L 138.0,8.0 L 101.0,0.0 L 80.0,0.0 L 67.0,3.0 Z M 73.0,27.0 L 78.0,23.0 L 93.0,22.0 L 116.0,28.0 L 134.0,37.0 L 160.0,57.0 L 201.0,41.0 L 249.0,34.0 L 280.0,35.0 L 305.0,39.0 L 354.0,56.0 L 369.0,43.0 L 393.0,29.0 L 421.0,22.0 L 438.0,25.0 L 444.0,35.0 L 444.0,58.0 L 438.0,86.0 L 433.0,96.0 L 401.0,77.0 L 398.0,73.0 L 422.0,65.0 L 421.0,62.0 L 402.0,56.0 L 390.0,56.0 L 364.0,64.0 L 364.0,66.0 L 389.0,83.0 L 420.0,115.0 L 435.0,136.0 L 450.0,165.0 L 458.0,193.0 L 459.0,214.0 L 455.0,236.0 L 444.0,260.0 L 423.0,284.0 L 404.0,298.0 L 385.0,308.0 L 340.0,322.0 L 299.0,328.0 L 241.0,330.0 L 187.0,325.0 L 140.0,313.0 L 110.0,299.0 L 93.0,287.0 L 77.0,271.0 L 62.0,247.0 L 55.0,222.0 L 56.0,188.0 L 67.0,155.0 L 93.0,113.0 L 120.0,85.0 L 150.0,64.0 L 124.0,56.0 L 111.0,56.0 L 89.0,64.0 L 115.0,74.0 L 81.0,97.0 L 77.0,90.0 L 70.0,60.0 L 69.0,38.0 Z"/>
    <path fill="#4F39F6" d="M 326.0,172.0 L 322.0,174.0 L 317.0,179.0 L 315.0,183.0 L 314.0,198.0 L 317.0,205.0 L 322.0,210.0 L 327.0,212.0 L 336.0,212.0 L 340.0,210.0 L 347.0,202.0 L 349.0,192.0 L 348.0,185.0 L 344.0,177.0 L 337.0,172.0 Z"/>
    <path fill="#4F39F6" d="M 176.0,172.0 L 171.0,175.0 L 166.0,182.0 L 165.0,185.0 L 165.0,198.0 L 169.0,206.0 L 172.0,209.0 L 178.0,212.0 L 187.0,212.0 L 194.0,208.0 L 198.0,203.0 L 200.0,195.0 L 200.0,188.0 L 197.0,180.0 L 192.0,174.0 L 187.0,172.0 Z"/>
    <path fill="#4F39F6" d="M 232.0,209.0 L 230.0,213.0 L 231.0,223.0 L 239.0,232.0 L 248.0,237.0 L 249.0,240.0 L 246.0,245.0 L 237.0,252.0 L 230.0,255.0 L 217.0,257.0 L 214.0,260.0 L 214.0,265.0 L 217.0,268.0 L 234.0,268.0 L 250.0,259.0 L 256.0,252.0 L 259.0,256.0 L 270.0,264.0 L 282.0,269.0 L 295.0,269.0 L 301.0,265.0 L 301.0,260.0 L 299.0,258.0 L 278.0,253.0 L 273.0,250.0 L 265.0,241.0 L 265.0,238.0 L 275.0,231.0 L 283.0,221.0 L 284.0,215.0 L 279.0,207.0 L 271.0,204.0 L 241.0,204.0 Z"/>
  </g>
</svg>